<svg xmlns="http://www.w3.org/2000/svg" xmlns:xlink="http://www.w3.org/1999/xlink" viewBox="0,0,256,256" width="50px" height="50px" fill-rule="nonzero"><g fill="#000000" fill-rule="nonzero" stroke="none" stroke-width="1" stroke-linecap="butt" stroke-linejoin="miter" stroke-miterlimit="10" stroke-dasharray="" stroke-dashoffset="0" font-family="none" font-weight="none" font-size="none" text-anchor="none" style="mix-blend-mode: normal"><g transform="scale(5.12,5.12)"><path d="M5,4c-1.64497,0 -3,1.35503 -3,3v9v2v25c0,1.64497 1.35503,3 3,3h40c1.64497,0 3,-1.35503 3,-3v-24v-3v-5c0,-1.64497 -1.35503,-3 -3,-3h-27c0.08657,0 -0.03101,0.00036 -0.27539,-0.28125c-0.24438,-0.28161 -0.54519,-0.74881 -0.85937,-1.25c-0.31418,-0.50119 -0.64346,-1.03596 -1.05859,-1.50586c-0.41514,-0.4699 -0.98789,-0.96289 -1.80664,-0.96289zM5,6h9c-0.06075,0 0.06114,0.00701 0.30859,0.28711c0.24746,0.2801 0.54864,0.74533 0.86133,1.24414c0.31269,0.49881 0.63651,1.03161 1.04297,1.5c0.40646,0.46839 0.96604,0.96875 1.78711,0.96875h27c0.56503,0 1,0.43497 1,1v2.1875c-0.31489,-0.11356 -0.64816,-0.1875 -1,-0.1875h-40c-0.35184,0 -0.68511,0.07394 -1,0.1875v-6.1875c0,-0.56503 0.43497,-1 1,-1zM5,15h40c0.56503,0 1,0.43497 1,1v3v24c0,0.56503 -0.43497,1 -1,1h-40c-0.56503,0 -1,-0.43497 -1,-1v-25v-2c0,-0.56503 0.43497,-1 1,-1z"></path></g></g><g fill="#000000" fill-rule="nonzero" stroke="none" stroke-width="1" stroke-linecap="butt" stroke-linejoin="miter" stroke-miterlimit="10" stroke-dasharray="" stroke-dashoffset="0" font-family="none" font-weight="none" font-size="none" text-anchor="none" style="mix-blend-mode: normal"><g><path d="M29.72,179.41l9.31,27.02l9.36,-27.02h4.73l-12.15,32.76h-3.83l-12.12,-32.76zM61.38,187.82v24.35h-4.17v-24.35zM56.88,181.37v0c0,-0.67333 0.20667,-1.24333 0.62,-1.71c0.40667,-0.46667 1.01667,-0.7 1.83,-0.7c0.80667,0 1.42,0.23333 1.84,0.7c0.42,0.46667 0.63,1.03667 0.63,1.71c0,0.67333 -0.21,1.23333 -0.63,1.68c-0.42,0.45333 -1.03333,0.68 -1.84,0.68c-0.81333,0 -1.42333,-0.22667 -1.83,-0.68c-0.41333,-0.44667 -0.62,-1.00667 -0.62,-1.68zM79.8,187.69v3.87c-0.62667,-0.10667 -1.30667,-0.16 -2.04,-0.16v0c-2.73333,0 -4.58667,1.16333 -5.56,3.49v0v17.28h-4.16v-24.35h4.05l0.06,2.82c1.36667,-2.17333 3.30333,-3.26 5.81,-3.26v0c0.80667,0 1.42,0.10333 1.84,0.31zM82.21,199.79v0c0,-3.79333 0.87667,-6.81 2.63,-9.05c1.76,-2.24 4.08667,-3.36 6.98,-3.36v0c2.96667,0 5.28333,1.04667 6.95,3.14v0l0.2,-2.7h3.81v23.76c0,3.15333 -0.93333,5.63667 -2.8,7.45c-1.87333,1.81333 -4.38333,2.72 -7.53,2.72v0c-1.75333,0 -3.47,-0.37333 -5.15,-1.12c-1.68,-0.75333 -2.96333,-1.78 -3.85,-3.08v0l2.16,-2.5c1.78667,2.20667 3.97,3.31 6.55,3.31v0c2.02,0 3.59667,-0.57 4.73,-1.71c1.13333,-1.14 1.7,-2.74667 1.7,-4.82v0v-2.09c-1.66667,1.92 -3.94,2.88 -6.82,2.88v0c-2.84667,0 -5.15,-1.14667 -6.91,-3.44c-1.76667,-2.3 -2.65,-5.43 -2.65,-9.39zM86.4,200.27v0c0,2.74667 0.56,4.90333 1.68,6.47c1.12667,1.56667 2.70333,2.35 4.73,2.35v0c2.62667,0 4.55333,-1.19333 5.78,-3.58v0v-11.12c-1.27333,-2.32 -3.18667,-3.48 -5.74,-3.48v0c-2.02,0 -3.6,0.78667 -4.74,2.36c-1.14,1.57333 -1.71,3.90667 -1.71,7zM113.58,187.82v24.35h-4.17v-24.35zM109.08,181.37v0c0,-0.67333 0.20667,-1.24333 0.62,-1.71c0.40667,-0.46667 1.01667,-0.7 1.83,-0.7c0.80667,0 1.42,0.23333 1.84,0.7c0.42,0.46667 0.63,1.03667 0.63,1.71c0,0.67333 -0.21,1.23333 -0.63,1.68c-0.42,0.45333 -1.03333,0.68 -1.84,0.68c-0.81333,0 -1.42333,-0.22667 -1.83,-0.68c-0.41333,-0.44667 -0.62,-1.00667 -0.62,-1.68zM124.76,177.61v34.56h-4.16v-34.56zM141.73,197.57v0c-3.70667,-1.06667 -6.40333,-2.37667 -8.09,-3.93c-1.69333,-1.55333 -2.54,-3.47 -2.54,-5.75v0c0,-2.58 1.03333,-4.71333 3.1,-6.4c2.06,-1.68667 4.74,-2.53 8.04,-2.53v0c2.25333,0 4.26,0.43667 6.02,1.31c1.76,0.86667 3.12667,2.06333 4.1,3.59c0.96667,1.53333 1.45,3.20667 1.45,5.02v0h-4.35c0,-1.98 -0.63,-3.53667 -1.89,-4.67c-1.26,-1.12667 -3.03667,-1.69 -5.33,-1.69v0c-2.12667,0 -3.78667,0.46667 -4.98,1.4c-1.19333,0.94 -1.79,2.24 -1.79,3.9v0c0,1.34 0.56667,2.47 1.7,3.39c1.13333,0.92 3.06,1.76333 5.78,2.53c2.72667,0.76667 4.85667,1.61 6.39,2.53c1.54,0.92667 2.68,2.00333 3.42,3.23c0.74,1.23333 1.11,2.68 1.11,4.34v0c0,2.66 -1.03333,4.78667 -3.1,6.38c-2.06667,1.6 -4.83333,2.4 -8.3,2.4v0c-2.25333,0 -4.35333,-0.43 -6.3,-1.29c-1.95333,-0.86667 -3.45667,-2.05 -4.51,-3.55c-1.06,-1.5 -1.59,-3.2 -1.59,-5.1v0h4.34c0,1.97333 0.73333,3.53667 2.2,4.69c1.46,1.14667 3.41333,1.72 5.86,1.72v0c2.28,0 4.02667,-0.46667 5.24,-1.4c1.21333,-0.92667 1.82,-2.19333 1.82,-3.8c0,-1.60667 -0.56333,-2.84667 -1.69,-3.72c-1.12,-0.88 -3.15667,-1.74667 -6.11,-2.6zM162.92,177.61v13.16c1.84667,-2.26 4.24667,-3.39 7.2,-3.39v0c5.14667,0 7.74333,2.9 7.79,8.7v0v16.09h-4.17v-16.11c-0.01333,-1.75333 -0.41333,-3.05 -1.2,-3.89c-0.78667,-0.84 -2.01333,-1.26 -3.68,-1.26v0c-1.35333,0 -2.54,0.36 -3.56,1.08c-1.02,0.72 -1.81333,1.66333 -2.38,2.83v0v17.35h-4.16v-34.56zM183.04,200.06v-0.29c0,-2.38667 0.46667,-4.53 1.4,-6.43c0.94,-1.90667 2.24667,-3.37667 3.92,-4.41c1.66667,-1.03333 3.57333,-1.55 5.72,-1.55v0c3.31333,0 5.99667,1.14667 8.05,3.44c2.04667,2.29333 3.07,5.34333 3.07,9.15v0v0.3c0,2.36667 -0.45333,4.49333 -1.36,6.38c-0.90667,1.88 -2.20667,3.34333 -3.9,4.39c-1.68667,1.05333 -3.62333,1.58 -5.81,1.58v0c-3.3,0 -5.97333,-1.14667 -8.02,-3.44c-2.04667,-2.3 -3.07,-5.34 -3.07,-9.12zM187.22,200.27v0c0,2.7 0.62667,4.86667 1.88,6.5c1.25333,1.63333 2.93,2.45 5.03,2.45v0c2.11333,0 3.79333,-0.82667 5.04,-2.48c1.24667,-1.66 1.87,-3.98333 1.87,-6.97v0c0,-2.66667 -0.63667,-4.83 -1.91,-6.49c-1.26667,-1.66 -2.95,-2.49 -5.05,-2.49v0c-2.05333,0 -3.71,0.82 -4.97,2.46c-1.26,1.63333 -1.89,3.97333 -1.89,7.02zM230.98,199.89v0.38c0,3.7 -0.84667,6.68333 -2.54,8.95c-1.69333,2.26667 -3.99,3.4 -6.89,3.4v0c-2.95333,0 -5.27667,-0.93667 -6.97,-2.81v0v11.72h-4.16v-33.71h3.8l0.2,2.7c1.69333,-2.09333 4.05,-3.14 7.07,-3.14v0c2.92,0 5.23333,1.1 6.94,3.3c1.7,2.20667 2.55,5.27667 2.55,9.21zM226.82,199.79v0c0,-2.74 -0.58667,-4.90667 -1.76,-6.5c-1.16667,-1.58667 -2.77,-2.38 -4.81,-2.38v0c-2.52,0 -4.41,1.11667 -5.67,3.35v0v11.63c1.24667,2.22 3.15,3.33 5.71,3.33v0c2,0 3.58667,-0.79 4.76,-2.37c1.18,-1.58667 1.77,-3.94 1.77,-7.06z"></path></g></g></svg>